:SAMPLES-PER-SECOND 30
:FULLY-SPECIFIED
:DEGREES
130
root  -63.5622 39.8399 -7.89904 149.644 -88.6057 -155.941
RightUpLeg  -15.5638 -10.043 -1.27785
RightLeg  10.3399 -4.06502 3.53499
RightFoot  11.3528 1.06383 -4.90177
RightToes  -1.74624e-010 0 -3.6325e-017
Spine  3.48686 -2.7937 4.84006
Spine1  8.3653 -2.83052 0.162179
HEad  -13.9087 6.55166 -5.66233
LeftShoulder1  8.45502 -11.5763 -48.9381
LeftArm  -16.5807 10.1488 -22.9045
LeftForeArm  34.9023 -44.5508 -8.61626
LeftHand  -0.244104 0.0205437 5.32207
RightShoulder  5.23154 8.48736 37.5984
RightArm  -13.6326 -25.6196 29.7345
RightForeArm  8.82278 8.88744 4.95572
RightHand  -0.32891 -1.52786 -9.76216
LeftUpLeg  11.7885 12.9061 3.47359
LeftLeg  29.8372 2.61519 1.97497
LeftFoot  -11.3671 0.0631532 -8.10516
LeftToes  1.61887e-010 9.40759e-012 5.52375e-011
131
root  -64.507 39.9327 -8.12204 84.2269 -88.5439 -89.7816
RightUpLeg  -15.1541 -9.37819 -0.94475
RightLeg  11.5925 -6.23965 3.93423
RightFoot  9.47043 1.1186 -5.72433
RightToes  -1.74624e-010 0 -3.6325e-017
Spine  3.69367 -3.06521 4.7042
Spine1  7.42965 -3.50856 2.59897
HEad  -13.0238 6.56637 -5.56341
LeftShoulder1  8.29178 -11.47 -48.3312
LeftArm  -14.6108 12.1336 -25.3687
LeftForeArm  33.4953 -40.3884 -7.37602
LeftHand  -0.244104 0.0205437 5.32207
RightShoulder  5.19534 8.43642 37.4863
RightArm  -11.753 -24.801 31.5495
RightForeArm  7.76401 12.2533 5.38237
RightHand  -0.383435 -1.00646 -10.087
LeftUpLeg  5.80187 12.0177 4.82077
LeftLeg  39.6831 3.50984 3.51816
LeftFoot  -3.23445 0.597568 -8.34831
LeftToes  1.61887e-010 9.40759e-012 5.52375e-011
132
root  -65.3237 39.9763 -8.26134 52.4484 -87.2434 -57.5865
RightUpLeg  -14.7288 -9.43062 -0.672551
RightLeg  12.9291 -7.84818 4.35301
RightFoot  8.00029 1.14076 -6.36154
RightToes  -1.74624e-010 0 -3.6325e-017
Spine  4.70117 -3.20072 5.83185
Spine1  6.23543 -3.58986 3.39698
HEad  -12.9829 5.78168 -5.02828
LeftShoulder1  8.28279 -11.5098 -48.1487
LeftArm  -11.6041 12.844 -26.8098
LeftForeArm  32.5361 -35.8713 -6.16867
LeftHand  -0.244104 0.0205437 5.32207
RightShoulder  5.24327 8.41662 37.9423
RightArm  -7.29381 -23.7821 32.9177
RightForeArm  4.28589 16.8326 5.35546
RightHand  -0.50483 -0.10796 -11.1155
LeftUpLeg  -0.394623 11.3975 5.7349
LeftLeg  48.9924 4.54363 6.02118
LeftFoot  2.07017 0.783144 -6.73522
LeftToes  1.61887e-010 9.40759e-012 5.52375e-011
133
root  -66.0915 40.0794 -8.33151 50.8449 -86.5165 -55.7457
RightUpLeg  -13.9583 -9.60835 -0.378278
RightLeg  13.7034 -8.32758 4.4285
RightFoot  6.18696 1.0993 -6.84169
RightToes  -1.74624e-010 0 -3.6325e-017
Spine  5.32308 -3.01344 7.60509
Spine1  5.96974 -3.06345 2.49256
HEad  -13.9243 4.79122 -4.56287
LeftShoulder1  8.52396 -11.7671 -48.721
LeftArm  -8.69893 12.7709 -27.2426
LeftForeArm  32.3794 -31.391 -5.06305
LeftHand  -0.244104 0.0205437 5.32207
RightShoulder  5.42007 8.616 38.6482
RightArm  -2.683 -21.6217 33.8733
RightForeArm  1.3013 20.5812 4.97684
RightHand  -0.668346 0.939196 -12.3629
LeftUpLeg  -5.73078 11.7417 5.99643
LeftLeg  56.0595 5.16439 8.68649
LeftFoot  1.82194 0.562364 -4.92166
LeftToes  1.61887e-010 9.40759e-012 5.52375e-011
134
root  -66.8282 40.2532 -8.39402 49.2774 -86.7044 -53.881
RightUpLeg  -12.9503 -9.34021 -0.492856
RightLeg  13.6262 -8.34789 4.24086
RightFoot  4.84755 1.04611 -7.10553
RightToes  -1.74624e-010 0 -3.6325e-017
Spine  5.27367 -2.62073 8.40057
Spine1  6.6292 -2.44539 1.44359
HEad  -14.9409 4.11333 -4.30574
LeftShoulder1  8.79108 -12.0133 -49.4553
LeftArm  -6.94667 12.7462 -27.6714
LeftForeArm  31.8138 -27.0696 -4.09771
LeftHand  -0.244104 0.0205437 5.32207
RightShoulder  5.64369 8.97483 39.1339
RightArm  0.612993 -18.2041 34.6076
RightForeArm  0.611368 22.3626 4.89556
RightHand  -0.790876 1.63494 -13.2094
LeftUpLeg  -10.1861 12.7614 5.43806
LeftLeg  60.0098 5.22505 10.2448
LeftFoot  -1.26263 0.329916 -3.6718
LeftToes  1.61887e-010 9.40759e-012 5.52375e-011
135
root  -67.5021 40.4317 -8.46218 42.5698 -87.1876 -46.8429
RightUpLeg  -11.983 -8.97899 -1.05873
RightLeg  13.253 -8.40959 4.13446
RightFoot  4.23773 0.985697 -6.97889
RightToes  -1.74624e-010 0 -3.6325e-017
Spine  5.35988 -2.2132 8.249
Spine1  6.9534 -1.93733 0.912055
HEad  -15.3601 3.56483 -4.15099
LeftShoulder1  8.91038 -12.1315 -49.747
LeftArm  -6.25593 13.2942 -28.4821
LeftForeArm  29.6504 -22.9046 -3.49678
LeftHand  -0.244104 0.0205437 5.32207
RightShoulder  5.80895 9.27507 39.3539
RightArm  3.22722 -14.7571 35.2335
RightForeArm  0.333161 23.2154 4.98205
RightHand  -0.7915 1.45339 -13.5507
LeftUpLeg  -13.8672 13.6636 4.50474
LeftLeg  60.6804 5.04761 10.2244
LeftFoot  -3.61174 0.253268 -3.44408
LeftToes  1.61887e-010 9.40759e-012 5.52375e-011
136
root  -68.1162 40.607 -8.51267 31.5323 -87.5743 -35.4957
RightUpLeg  -10.9581 -8.89952 -1.7769
RightLeg  12.6767 -8.37353 4.22846
RightFoot  3.66065 0.883781 -6.50853
RightToes  -1.74624e-010 0 -3.6325e-017
Spine  5.9639 -1.77582 8.0342
Spine1  6.12193 -1.35021 0.317076
HEad  -15.3434 2.79646 -3.90717
LeftShoulder1  9.00305 -12.3163 -49.6786
LeftArm  -6.80323 14.5688 -29.1232
LeftForeArm  27.5217 -18.9875 -3.83079
LeftHand  -0.244104 0.0205437 5.32207
RightShoulder  5.91233 9.44963 39.5298
RightArm  4.78197 -12.658 35.6001
RightForeArm  -0.444461 24.6334 5.29289
RightHand  -0.728328 0.757773 -13.8361
LeftUpLeg  -16.6331 14.2834 3.62614
LeftLeg  58.1526 5.17582 9.45185
LeftFoot  -4.59453 0.261151 -3.96418
LeftToes  1.61887e-010 9.40759e-012 5.52375e-011
